<?xml version="1.0" encoding="utf-8"?>
<!-- Generator: Adobe Illustrator 23.0.4, SVG Export Plug-In . SVG Version: 6.00 Build 0)  -->
<svg version="1.1" id="Layer_1" xmlns="http://www.w3.org/2000/svg" xmlns:xlink="http://www.w3.org/1999/xlink" x="0px" y="0px"
	 viewBox="0 0 1088.75 331.74" style="enable-background:new 0 0 1088.75 331.74;" xml:space="preserve">
<style type="text/css">
	.st0{fill:#FFFFFF;}
	.st1{fill:#005288;}
	.st2{fill:#706F72;}
	.st3{fill:none;}
	.st4{fill:#005288;stroke:#005288;stroke-miterlimit:10;}
	.st5{font-family:'ProximaNova-Regular';}
	.st6{font-size:51px;}
	.st7{letter-spacing:9;}
</style>
<path class="st1" d="M167.12,299.12c-9.86,10.3-19.01,19.73-27.98,29.32c-2.23,2.39-4.53,3.36-7.81,3.28
	c-9.66-0.21-19.33,0.07-28.99-0.19c-2.05-0.05-4.56-1.03-6.01-2.46c-31.21-30.76-62.32-61.63-93.32-92.59
	c-1.42-1.42-2.31-3.97-2.38-6.02c-0.26-8.66,0.26-17.35-0.25-25.99c-0.32-5.39,1.6-8.95,5.34-12.53
	c8.78-8.37,17.18-17.14,26.22-26.24c-6.47-6.43-12.29-13.39-19.28-18.87c-9.97-7.81-12.51-17.19-12.66-29.65
	c-0.17-13.84,3.48-23.58,13.77-33.23C41.6,57.88,68.21,30.5,95.19,3.52c2.58-2.58,5.16-3.58,8.76-3.48
	c8.66,0.24,17.34,0.34,25.99-0.03c4.43-0.19,7.42,1.33,10.39,4.42c7.74,8.04,15.77,15.8,23.7,23.65c1.04,1.03,2.19,1.95,4.16,3.68
	c9.17-9.45,18.28-18.68,27.17-28.1c2.5-2.65,5.07-3.72,8.73-3.62c9.33,0.25,18.67-0.08,27.99,0.19c2.24,0.07,5.01,0.98,6.56,2.5
	c31.1,30.64,62.08,61.39,92.97,92.25c1.45,1.44,2.49,3.97,2.54,6.02c0.26,9.99,0.27,20-0.02,29.99c-0.06,2.19-1.22,4.83-2.75,6.43
	c-9.07,9.53-18.39,18.81-28.14,28.69c4.49,4.55,9.13,9.21,13.74,13.9c5.71,5.81,13.54,10.74,16.48,17.73
	c2.87,6.81,0.14,15.8,0.96,23.71c0.96,9.3-2.46,15.6-9.11,22.04c-28.86,27.92-57.17,56.41-85.59,84.79
	c-2.43,2.43-4.85,3.53-8.3,3.45c-9.33-0.21-18.67-0.23-27.99,0.01c-3.33,0.08-5.56-1.05-7.79-3.38
	C186.65,318.97,177.51,309.75,167.12,299.12z M167.6,230.3c21.39-21.81,42.65-43.48,62.41-63.62
	c-20.71-21.32-41.85-43.09-62.82-64.67c-21.27,21.58-42.48,43.09-62.9,63.81C125.05,186.95,146.22,208.52,167.6,230.3z M130.85,66.2
	c-4.27-4.41-8.98-9.27-13.73-14.18C95.91,73.58,74.6,95.24,54.34,115.82c4.17,4.49,8.75,9.41,13.65,14.69
	C88.92,109.09,109.98,87.55,130.85,66.2z M130.66,266.57c-21.35-21.91-42.44-43.55-63.27-64.93c-4.88,4.87-9.64,9.61-13.21,13.16
	c21.1,21.56,42.33,43.25,63.35,64.74C122.22,274.91,126.93,270.26,130.66,266.57z M267.42,201.49
	c-21.1,21.45-42.33,43.02-62.91,63.94c4.1,4.31,8.83,9.29,13.79,14.5c21.18-21.56,42.38-43.15,62.89-64.03
	C276.82,211.34,272.16,206.46,267.42,201.49z M281.55,117.05c-21.39-21.83-42.63-43.5-64.02-65.34c-4.77,5.03-9.43,9.93-13.3,14
	c20.99,21.51,42.21,43.23,63.56,65.11C272.77,125.82,277.55,121.04,281.55,117.05z"/>
<path class="st2" d="M487.9,94.85c1.4,2.93,2.27,4.47,2.9,6.11c13.34,34.42,26.62,68.87,40.03,103.26c1.99,5.1,4.32,10.1,6.91,14.93
	c3.78,7.05,9.79,11.12,17.81,12.17c1.48,0.19,2.89,0.88,4.33,1.34c-0.08,0.42-0.16,0.83-0.24,1.25c-18.86,0-37.71,0-56.57,0
	c-0.15-0.38-0.3-0.77-0.45-1.15c1.4-0.51,2.76-1.33,4.2-1.47c11-1.05,13.14-3.62,9.83-14.05c-3.57-11.24-7.82-22.26-12.1-33.25
	c-0.58-1.5-3.04-3.2-4.66-3.23c-13.99-0.26-27.99-0.23-41.98-0.04c-1.46,0.02-3.71,1.23-4.24,2.46
	c-5.12,11.9-10.4,23.76-14.71,35.96c-2.91,8.21-0.34,11.08,8.46,12.1c1.56,0.18,3.06,0.87,4.59,1.33c-0.15,0.45-0.3,0.9-0.46,1.35
	c-13.82,0-27.63,0-42.93,0c1.8-1.35,2.59-2.43,3.51-2.55c8.77-1.13,14.71-6.33,18.44-13.76c7.23-14.42,14.09-29.02,20.81-43.69
	c11.23-24.5,22.23-49.11,33.35-73.66C485.39,98.82,486.34,97.5,487.9,94.85z M501.73,176.03c-6.74-18.37-13.17-35.91-19.6-53.45
	c-0.57,0.04-1.14,0.08-1.71,0.13c-7.78,17.55-15.56,35.09-23.64,53.33C472.26,176.03,486.33,176.03,501.73,176.03z"/>
<path class="st2" d="M929.66,232.43c1.72-0.41,3.42-1.03,5.17-1.18c9.65-0.85,12.21-3.67,9.37-12.85
	c-3.68-11.9-8.3-23.5-12.79-35.13c-0.48-1.24-2.71-2.53-4.14-2.55c-14.15-0.18-28.31-0.16-42.46,0.01c-1.35,0.02-3.43,1.08-3.91,2.2
	c-5.15,12.06-10.49,24.07-14.87,36.41c-2.83,7.98-0.3,10.84,8.15,11.9c1.66,0.21,3.27,0.8,4.91,1.21c-0.11,0.49-0.22,0.99-0.33,1.48
	c-13.89,0-27.77,0-41.66,0c-0.16-0.3-0.32-0.6-0.48-0.91c0.9-0.58,1.75-1.57,2.7-1.69c8.38-1.01,14.32-5.82,17.87-12.93
	c8.39-16.81,16.36-33.83,24.21-50.89c10.37-22.51,20.46-45.14,30.7-67.71c0.59-1.29,1.45-2.46,2.78-4.67
	c1.36,2.55,2.4,4.12,3.07,5.84c14.04,36.1,28,72.22,42.08,108.3c1.5,3.85,3.51,7.54,5.62,11.11c3.8,6.42,9.58,9.96,16.98,10.94
	c1.46,0.19,2.85,0.84,4.28,1.28c-0.08,0.43-0.16,0.86-0.24,1.29c-18.86,0-37.72,0-56.59,0C929.95,233.41,929.8,232.92,929.66,232.43
	z M909.25,122.48c-0.56,0.01-1.12,0.03-1.67,0.04c-7.79,17.59-15.59,35.19-23.67,53.43c15.4,0,29.61,0,44.85,0
	C922.1,157.72,915.68,140.1,909.25,122.48z"/>
<path class="st2" d="M559.1,120.36c0-8.9,0-17.79,0-26.69c4.68,8.06,12.43,6.54,19.53,6.59c26.65,0.21,53.3,0.36,79.96,0.43
	c7.99,0.02,15.98-0.3,23.98-0.45c5.3-0.1,9.71-1.77,12.32-8.61c0,10.82,0,19.81,0,29.85c-1.75-1.19-2.77-1.5-2.91-2.03
	c-2.3-8.99-9.54-11.2-17.22-11.74c-11.28-0.8-22.61-0.71-33.92-1.14c-3.59-0.14-4.99,1.04-4.97,4.84
	c0.13,33.65,0.07,67.31,0.17,100.96c0.01,3.14,0.48,6.32,1.12,9.4c1.27,6.11,5.25,8.74,13.5,9.48c1.85,0.17,3.68,0.69,5.51,1.05
	c-0.09,0.54-0.19,1.08-0.28,1.62c-19,0-37.99,0-56.99,0c-0.12-0.41-0.23-0.82-0.35-1.22c1.28-0.48,2.52-1.26,3.84-1.39
	c11.97-1.24,13.81-2.86,15.62-14.56c0.41-2.62,0.56-5.3,0.57-7.95c0.05-31.99-0.03-63.98,0.15-95.96c0.03-4.65-1.12-6.58-6.09-6.31
	c-10.79,0.58-21.62,0.52-32.42,1.06C571.12,108.03,563.26,110.91,559.1,120.36z"/>
<path class="st2" d="M1011.51,196.58c0.81,3.48,1.56,6.97,2.42,10.44c6.61,26.44,36.28,30.05,52.07,20.13
	c11.77-7.4,14.16-24.37,5.22-36.11c-6.66-8.75-16.22-13.64-25.32-19.16c-5.69-3.45-11.49-6.77-16.91-10.6
	c-28.53-20.16-14.54-52.55,7.82-62c13.99-5.92,28-4.62,41.52,1.67c2.09,0.97,4.08,3.99,4.5,6.35c0.99,5.55,1,11.27,1.4,16.93
	c-0.67,0.14-1.35,0.27-2.02,0.41c-0.61-1.29-1.43-2.52-1.79-3.87c-5.99-22.34-32.48-24.51-45.82-14.3
	c-9.93,7.59-11.6,22.07-2.35,31.81c6.3,6.62,14.53,11.47,22.12,16.78c5.86,4.09,12.31,7.34,18.08,11.53
	c10.88,7.89,17.6,18.24,16.07,32.28c-1.87,17.19-10.6,29.83-27.07,35.69c-18.6,6.62-35.68,2.07-51.21-9.37
	c-1.11-0.81-2.47-2.35-2.42-3.49c0.38-8.36,1.1-16.7,1.71-25.05C1010.2,196.61,1010.85,196.59,1011.51,196.58z"/>
<path class="st2" d="M717.53,232.52c1.18-0.42,2.34-1.01,3.56-1.23c2.78-0.48,5.61-0.64,8.38-1.18c5.04-0.98,8.47-3.75,9.16-9.13
	c0.4-3.13,0.95-6.27,0.95-9.4c0.07-29.97,0.05-59.95,0.03-89.92c0-1.99-0.06-4.01-0.37-5.97c-1.72-10.8-4.21-13.07-15.09-14.19
	c-1.52-0.16-3-0.7-4.33-2.1c18.91,0,37.82,0,56.73,0c0.13,0.2,0.27,0.41,0.4,0.61c-1.32,0.5-2.61,1.28-3.97,1.44
	c-12.5,1.52-15.36,4.51-15.94,17.09c-0.18,3.82-0.1,7.66-0.1,11.49c-0.01,24.48-0.05,48.96,0.04,73.44c0.02,4.64,0.45,9.29,1,13.9
	c0.73,6.16,3.05,9.15,9.09,9.24c13.12,0.19,26.26-0.24,39.37-0.84c6.2-0.29,10.59-3.6,12.02-10.07c0.16-0.73,0.66-1.39,1-2.09
	c0.46,0.02,0.92,0.04,1.38,0.07c0,1.91,0.19,3.85-0.05,5.74c-0.34,2.63-0.95,5.23-1.54,7.81c-1.5,6.6-3,7.2-9.61,7.16
	c-29.11-0.16-58.23-0.01-87.34,0.01c-1.51,0-3.02-0.19-4.53-0.3C717.69,233.56,717.61,233.04,717.53,232.52z"/>
<rect x="422.99" y="271.12" class="st3" width="318.14" height="34.47"/>
<text transform="matrix(1 0 0 1 422.9866 305.1396)"><tspan x="0" y="0" class="st4 st5 st6 st7">RESEARC</tspan><tspan x="281.83" y="0" class="st4 st5 st6">H</tspan></text>
</svg>
